<?xml version="1.0" encoding="UTF-8"?>
<svg id="_圖層_1" data-name="圖層 1" xmlns="http://www.w3.org/2000/svg" viewBox="0 0 527.72 527.3">
  <path d="M520.22,263.65c0,141.47-114.78,256.15-256.36,256.15S7.5,405.12,7.5,263.65,122.28,7.5,263.86,7.5s256.36,114.68,256.36,256.15ZM511.67,263.63c0-136.75-110.94-247.6-247.8-247.6S16.07,126.88,16.07,263.63s110.94,247.6,247.8,247.6,247.8-110.85,247.8-247.6Z" style="fill: #1f4d31; stroke: #1f4d31; stroke-miterlimit: 10; stroke-width: 15px;"/>
  <path d="M511.67,263.63c0,136.75-110.94,247.6-247.8,247.6S16.07,400.38,16.07,263.63,127.02,16.03,263.87,16.03s247.8,110.85,247.8,247.6ZM439.22,290.77l-21.32-30.23-.19-10.84,9.84,8.56,4.33-3.42-10.09-10.28c-1.98-2.01-3.37-4.99-3.76-7.91l7.57,6.69c1.06.94,4.13-1,4.92-2.68l-10.13-10.81c-1.26-1.34-2.3-4.97-2.46-6.77l5.99,5.58c.72.67,3.01,1.48,3.69.88.54-.48,1.63-1.84,2.19-2.63-5.26-5.07-9.85-10.73-12.97-17.09-.32-.65-1.95-1.91-2.58-1.62-2.63,1.21-6.52,11.64-14.81,18.77.27.82,1.94,2.9,2.82,2.72s2.67-.89,3.5-1.33l5.62-5.23c-1.25,6.5-5.47,10.52-9.76,14.29l-56.03-80.12c-.68-.98-2.48-2.3-3.41-2.2-.74.08-2.31,1.07-2.84,1.63l-20.67,21.68-51.34-67.72c-.8-1.05-3.01-2.44-4.02-2.06-.81.3-2.19,1.47-2.87,2.38l-55.8,73.68-18.44-19.11c-1.22-1.27-4.41-2.48-5.66-.77l-49.59,68.02c-4.82-4.48-9.73-8.43-11.01-15.67l6.76,6.12c1.03.28,3.11.43,4.1.34.79-.07,1.21-2.81.54-3.42-9.48-8.7-12.49-19.38-15.03-17.92-2.31,1.32-4.72,8.87-14.11,17.96-.68.65.6,3.66,1.55,3.52l3.27-.47,6.81-6.21c-1.58,8.07-7.4,12.04-12.33,17.42-.16,1.24,3.17,3.52,4.64,3.02l7.81-6.88c-2.31,8.04-9.01,12.33-13.88,18.58.11,1.48,4.12,3.7,5.28,2.6l8.36-7.9-.04,12.64-24.09,33.04c-1.88,1.64-2.43,4.39-.38,6.32h347.11c1.41,0,3.48-.78,3.37-1.62l-.47-3.51ZM139.71,333.19c7.82-7.6,10.41-16.14,6.55-16.32-.99-.05-3.04.82-3.66,1.72l-7.12,10.34c-1.53-.69-3.84-2.57-4.5-3.53l7.14-10.44c.62-.91-.71-4.29-1.77-4.4s-3.22.87-3.85,1.83l-6.02,9.3-4.37-3.25c-.77-.58-3.64-.5-3.74.46l-.37,3.69c8.36,8.52,16.64,15.92,26.35,22.72,8.52,5.25,18.61,7.71,17.77,4.1-1.04-4.46-14.76-8.05-22.41-16.22ZM274.58,387.74c-2.97,1.69,6.98,6.19,20.28-6.01,7.96,5.27,17.76,10.08,27.04,10.65.94.06,2.51-2.43,1.94-3.01-3.5-3.56-15.9-6.14-24.19-12.59,5.04-7.75,12.28-18.75,8.23-22.54-.77-.72-3.1-1.59-4.15-1.45l-6.82.93.35-4.91c.08-1.11,7.22-4.95,11.16-.21,6.68-5.54,11.44-16.91,8.24-26.11-1.85-5.33-13.56-5.27-15.73-.86-2.43,4.96,10.29,1.88,10.18,4.04l-.17,3.25-8.62,1.37c-.89.14-2.33,1.37-2.76,2.04s.58,3.56,1.37,3.49l8.85-.78c.15.84-1.51,3.86-2.67,4.15l-9.28,2.28-.68-25.5c-.03-1.21-2-3.43-3-3.41s-2.47,2.21-2.49,3.32l-.54,27.03-10.53,2.82c-.26-3.17-.53-5.37-.12-6.59.35-1.05,3.3-1.65,4.27-2.17l3.71-2.02c.71-.39.15-3.51-.27-4.13-2.4-.12-5.55.59-8.59,1.67l-1.52-6.11,9.8-6.84c.73-.51.81-3.15.43-3.87s-2.89-1.06-3.66-.54l-13.98,9.41c4.4,9.2,1.46,18.99,5.78,28.65l14.2-3.69c-.02,2.34-.22,5.88-.87,7.18l-8.24,3.17c-1.08.41-2.48,2.44-2.15,3.46s3.28,2.25,4.36,1.89l17.9-5.91c-1.9,5.89-4.59,9.7-7.85,13.76-7.96-6.42-15.42-6.46-14.75-3.84.12.47.77,2.22,1.16,2.49l9.21,6.45c-4.08,4.14-9.12,6.37-14.86,9.63ZM88.75,336.16l8.63,5.86c-5.04,9.58-11.48,18.51-20.23,24.93-.99.73-2.33,2.21-2.35,3.12-.02.73,1.18,2.06,1.88,2.25,3.7,1.01,11.3-6.43,16.03-11.82,9.79-11.73,16.41-25.08,21.68-39.57-.51-1.92-.95-3.55-1.53-4.46-.46-.73-3.22-1.12-4.08-.91l-15.25,3.68c-1.18.28-2.69,3.11-2.13,4.05.45.75,2.63,1.87,3.62,1.68l11.64-2.22-6.1,13.36-8.27-4.75c-.92-.53-3.24.04-3.97.63s-.36,3.63.44,4.18ZM447.43,359.62c6.73,2.93,7.47-9.53-17.54-14.21l-.73-18.99,24.56-4.4c1.37-.25,3.38-2.48,3.21-3.71s-2.94-2.93-4.32-2.69l-34.9,6.25-18.92,3.15c-1.14.19-2.48,3.09-1.78,3.95s3.36,2.24,4.68,2.04l20.64-3.07.02,58.76c0,1.68,2.21,4.36,3.39,3.84,1.02-.44,3.11-2.78,3.14-3.98l.93-34.6,17.61,7.67ZM259.15,386.38c1.79.29,3.8-3.98,3.79-5.76l-.08-21.7,5.36-5.81c1.37-1.48,2.29-4.73.91-6.01l-6.5,3.67.16-15.47c3.6-.89,8.14-3.23,7.73-6.37-.43-3.31-5.42-2.22-7.88-.03l-.74-8.27c-.11-1.27-2.33-3.42-3.42-3-.91.35-2.59,2.34-2.63,3.48l-.35,10.4-9.07,2.09c-1.02.24-2.59,1.65-2.85,2.58s1.9,3.39,2.94,3.3l9.21-.8.69,17.33-11.9,10.11c-.89.75-1.85,4.2-1.08,4.92l2.92,2.74,10.14-9.24-.13,12.62-5.15-3.84c-.49-.37-2.1-.58-2.66-.4-2.67.87,3.67,12.34,10.61,13.45ZM220.82,363.37l4.77,15.63c.5,1.65,3.88,3.49,5.15,2.58,1.07-.76,2.19-3.73,1.77-5.15l-9.86-33.46c-.35-1.2-3.29-2.68-4.42-2.2-.94.4-2.26,2.97-1.99,4.15l2.58,11.01c-5.52,4.67-10.69,8.64-18.81,11.24v-39.32s-2.25-3.66-2.25-3.66c-.5-.81-2.93.06-4.18.79l.02,44.93-12.88,3.03c-1.68.4-4.98-2.8-4.72-4.38l3.03-17.93c.21-1.22-.4-4.05-1.49-4.37s-3.66,1.24-4,2.33c-3.16,10.18-6.83,23.88-.92,28.85,8.79,7.4,35.75-4.56,48.18-14.06ZM109.33,347.41l19.41-4.6c1.02-.24,2.63-2.46,2.7-3.49s-2.81-2.81-3.99-2.53l-18.68,4.35c-1.1.26-2.4,2.3-2.7,3.15s2.19,3.38,3.27,3.12ZM386.6,350.63c1.53-1.33,2.72-2.46,3.21-3.3s-2.28-3.04-3.5-2.92l-11.81,1.09-40.81,6.15c-1.68.25-3.83,3.43-2.87,4.44.85.89,3.17,1.82,4.82,2.26l50.96-7.71ZM127.97,383.78c6.16-7.82,7.34-15.82,3.17-15.99-1.13-.05-2.69,1.64-3.29,2.77l-5.97,11.32c-1.09,2.07-4.11,3.32-5.48,2.58.96-4.89-1.77-8.53-4.06-12.54l21.37-7.29c-1.48-1.94-3.1-3.37-2.58-4.06l2.03-2.71c.81-1.08,1.66-3.99,1.62-5.33-.16-6.21-14.46-4.34-24.12,1.06l-3.22-2.1c-3.3-2.15-3.47,11.57,1.78,21.55-.98,4.57-.3,8.51,2.58,12.51l-13.7,2.35c-1.06.18-2.61,2.27-2.64,3.3s2.28,2.86,3.55,2.7l24.81-3.07,23.6-1.55c1.44-.09,4.07-1.71,4.26-2.98s-2.61-3.72-4.11-3.63l-19.6,1.13ZM401.71,429.29l3.85.36c0-5.7.53-11.27-.71-16.38-1.15-4.72-7.97-3.57-11.04-1.16l-.54-9.25c-.05-.9-3.31-1.1-3.77-.6l-.13,27.39h4.15s-.11-11.38-.11-11.38c-.01-1.44,1.57-3.88,2.8-4.55,1.05-.57,4.87.34,4.92,1.61l.57,13.96ZM226.84,425.61l.1-12.04,4.25.03c.62,0,.89-2.57.26-2.66l-3.95-.6c-.83-.13-.67-2.51-.62-3.78.03-.74-2.25-2.11-2.53-1.44l-.98,2.35c-.44,1.05-1.7,2.66-3.25,4.32-.33-.03,1.04,1.3,2.52,2.59l.2,9.41c.05,2.26,1.1,5.26,2.7,5.94,2.09.89,5.55.59,7.59-1.56l-6.29-2.56ZM135.04,429.6c1.37.27,4.3-.31,4.3-1.07l-.12-10.83c-.02-1.68,1.86-3.85,3.17-4.2,1.12-.3,4.28,1.03,4.3,2.38l.23,13.66,3.95.14.04-13.2c0-2.91-1.93-6.07-4.91-6.46-1.88-.25-4.94,1.23-7.18,2.72-3.37-3.32-8.01-3.2-11.51-.44-.31-1.07-4.03-2.05-4.03-1.02l.02,17.5c0,1.17,4.25,1.03,4.24-.31l-.04-11.16c0-1.67,2.16-3.76,3.83-3.89,1.21-.09,3.68,1.69,3.68,3l.03,13.16ZM311.28,428.63c1.57-1.21,2.1-5.44,1.1-6.89-3.01-4.35-10.18-2.98-8.78-7.91l8.73-.24c-1.61-4.99-8.96-4.32-11.87-1.22-.97,1.04-1.21,4.96-.28,5.99,3.51,3.86,10.3,3.41,8.5,7.31-1.29,2.81-5.48-.15-9.28.06-.62.04-.67,2.31-.14,2.65,2.48,1.59,8.53,2.93,12.02.24ZM327.69,426.6c-1.46.28-4.65.02-5.6-.86s-1.67-3.54-1.65-4.72l11.84.29c1.8-5.22-.8-10.66-6.3-11.23-4.18-.44-8.81,2.18-9.77,7.39-.64,3.49.37,7.91,2.33,10.01,3.06,3.28,9.01,3.71,13.2.7.44-.32-.44-2.29-.97-2.18l-3.07.6ZM173.7,420.14c-.02-6.5-4.62-10.5-10.37-9.97-4.79.45-8.29,4.86-8.12,10.39s4.05,9.74,9.11,9.72c5.16-.02,9.4-4.03,9.38-10.13ZM190.21,411.58l-.12,11.19c-.02,1.47-2.5,3.68-3.86,3.91s-4-1.73-4.01-3.15l-.1-12.9-4.16.08.04,12.95c0,2.48,2.22,6.35,4.33,6.46,2.5.13,5.71-.94,7.59-1.81l4.39,1.6-.18-18.18c-.01-1.24-3.9-1.29-3.91-.15ZM212.53,427.07c.06,1.25.19,2.84.67,2.77l3.18-.46-.4-15.8c-.04-1.76-4.14-4.06-5.75-3.54l-5.69,1.83-4.5-1.13v17.34c-.01.76,1.62,2.07,2.29,1.96.45-.07,1.95-1.19,1.94-1.64l-.14-9.88c-.02-1.59,1.43-3.87,2.57-4.6s5.22.11,5.28,1.45l.54,11.7ZM242.91,429.59c1.68-.57,4.31-.29,7.25.07.08-5.21.83-12.43-1.34-17.02-3.03-6.41-17.2.57-13.18,1.52,4.29,1.02,9.28-3.52,10.76,3.03l-7.56,1.64c-3.12.68-4.94,4.97-4.24,7.24,1.17,3.8,4.18,4.94,8.33,3.52ZM259.88,410.38h-4.15v19.52h4.15v-19.52ZM278.08,426.7c.05.68-.24,2.7.38,2.7h3.59s-.29-15.61-.29-15.61c-.03-1.75-4.01-4.16-5.57-3.69l-5.99,1.79-4.27-1.36-.07,19.05,3.98.14.43-13.86c.06-1.96,6.83-3.11,6.97-1.14l.84,11.99ZM351.39,429.8c.2-4.55,1.06-11.49-.79-16.24s-11.36-5.04-13.63.42c2.82,1.42,9.58-2.12,9.82.72l.23,2.64c-3.42.71-6.02,1.16-8.23,2.37-2.63,1.44-3.55,5.17-2.7,6.99,3.23,6.9,8.84.43,15.29,3.09ZM361.4,417.8c.1-2.78,3.93-4.32,5.78-4.45.73-.09.82-3.32.08-3.17l-3.46.7c-.62.13-2.04,1.6-2.61,1.32l-3.91-1.85-.39,17.77c-.02,1.13,2.85,1.84,4.07,1.47l.44-11.78ZM373.99,418.82c.69-4.79,3.92-5.95,7.43-4.9.72.22,2,.67,2.22.2l.88-1.94c.61-1.34-7.45-4.04-12.21.58-1.8,1.75-3.07,5.6-2.64,8.8.47,3.48,2.93,7.01,5.6,8.08,6.34,2.54,11.82-2.7,10.01-3.2-3.77-1.06-7,1.46-9.56-1.25-1.09-1.15-1.98-4.61-1.73-6.36ZM296.02,418.43l-9.17-.18c-.23,1.01-.25,3.1.39,3.1l2.56.03c2.78.03,5.73.45,6.21-2.95Z" style="fill: none;"/>
  <path d="M439.22,290.77l.47,3.51c.11.84-1.96,1.63-3.37,1.63H89.22c-2.05-1.94-1.5-4.69.38-6.33l24.09-33.04.04-12.64-8.36,7.9c-1.16,1.1-5.17-1.12-5.28-2.6,4.87-6.24,11.57-10.53,13.88-18.58l-7.81,6.88c-1.47.5-4.8-1.78-4.64-3.02,4.93-5.37,10.75-9.35,12.33-17.42l-6.81,6.21-3.27.47c-.96.14-2.23-2.87-1.55-3.52,9.4-9.09,11.81-16.63,14.11-17.96,2.54-1.45,5.55,9.22,15.03,17.92.66.61.25,3.34-.54,3.42-1,.09-3.07-.06-4.1-.34l-6.76-6.12c1.28,7.25,6.19,11.19,11.01,15.67l49.59-68.02c1.25-1.71,4.43-.49,5.66.77l18.44,19.11,55.8-73.68c.68-.9,2.06-2.08,2.87-2.38,1.01-.37,3.22,1.01,4.02,2.06l51.34,67.72,20.67-21.68c.53-.56,2.1-1.55,2.84-1.63.93-.1,2.73,1.22,3.41,2.2l56.03,80.12c4.28-3.78,8.51-7.8,9.76-14.29l-5.62,5.23c-.83.44-2.62,1.16-3.5,1.33s-2.54-1.9-2.82-2.72c8.29-7.13,12.18-17.56,14.81-18.77.63-.29,2.26.97,2.58,1.62,3.12,6.37,7.71,12.02,12.97,17.09-.56.8-1.65,2.16-2.19,2.63-.68.6-2.98-.22-3.69-.88l-5.99-5.58c.15,1.8,1.2,5.42,2.46,6.77l10.13,10.81c-.78,1.68-3.85,3.62-4.92,2.68l-7.57-6.69c.38,2.92,1.78,5.9,3.76,7.91l10.09,10.28-4.33,3.42-9.84-8.56.19,10.84,21.32,30.23ZM281.79,183.23l18.1-18.8-34.96-45.83-12.84,33.67,29.7,30.96ZM214.03,233.36l37.02-98.27-56.94,74.54,19.92,23.74ZM276.81,187.53l-14.69-15.83-12.69-12.39-27.14,71.13c19.52-13.98,36.11-28.06,54.52-42.91ZM345.62,212.29l-5.58-46.91-17.3,18.12,22.88,28.78ZM359.35,248.52c.16,1.05-1.49,3.4-2.36,3.19l-3.14-.75c-2.28-2.25-3.92-4.2-6.61-4.73,3.45,7.37,7.86,11.04,12.95,16.77l-4.26,2.78-8.54-7.17c1.6,9.98,15.97,15.53,12.4,19.82-.72.87-3.35,1.48-4.24.64l-8.13-7.61-.11,18.36,49.94-.13-57.81-74.35-19.41-24.64-13.7,58.9c-.59,2.53-1.49,4.11-4.22,3.85-1.29-.12-2.76-2.52-2.36-4.27l15.13-64.96-10.91-14.54-17.23,17.53c-21.1,18.43-42.89,35.32-65.28,52.51l67.3,50.07,52.34-.03.04-18.21-9.43,8.74-4.31-3.84c5.7-6.14,11.78-9.62,13.7-17.89l-8.11,6.87c-1.22,1.04-4.93-2.29-3.89-3.5,4.75-5.54,10.63-8.62,11.75-16.87l-4.6,4.73c-.79.81-2.9,2.16-4.01,2.22s-3.05-1.84-3.48-2.69c8.97-7.44,11.76-16.04,14.52-18.41,3.1-2.66,6.65,10.44,16.08,17.61ZM402.96,286.46c1.98,2.99,5.67,4.61,8.58,2.62l-.19-25.85-45.39-65.42-18.36-25.29,5.49,44.08,30.33,14.13,12.61,44.89c1.09,3.87,4.68,7.44,6.93,10.84ZM188.78,205.72l11.62-15.69-15.73-16.56-6.22,30.52,10.33,1.73ZM174.22,249.99c.69,8.07,7.81,11.66,12.01,16.89.3.8-1.31,2.89-2.38,3.15s-3.37-.98-4.27-1.74l-5.4-4.57c.75,3.1,2.32,5.86,4.54,8.16l9.04,9.36-2.79,2.62c-.69.65-3.25-.53-3.97-1.22l-6.73-6.45-.27,13.62,18.49-.15,18.84-49.07-22.7-27.7-12.4-2.63-10.66,18.52c-1.84.48-5.15-1.1-5.91-2.76,3.8-7.24,8.73-13.81,11.65-21.33,2.61-6.75,3.39-14.25,4.23-22.11l-55.38,76.52-.09,30.67,47.72.02-.04-13.17-9.02,8.02c-11.3-4.15,6.51-8.28,8.93-21.21l-5.98,5.43c-.77.7-3.1,1.37-4.12,1.17-7.43-1.44,9.75-10.68,10.17-19.96l-5.23,4.75c-.93.79-2.82,1.76-3.89,1.86s-3.05-2.53-2.49-3.44c8.26-6.57,12.96-19.27,15.05-18.28,2.63,1.24,6.26,11.1,14.58,17.97.64.7-1.08,3.56-1.99,3.48l-2.9-.26-6.64-6.17ZM378.04,235.14l-21.9-9.46,29.41,38.19-7.51-28.73ZM277.45,289.55l-60.56-45.12-17.44,45.37,78.01-.25ZM114.07,289.63l-.45-21.68-15.8,21.78,16.26-.1ZM430.16,289.45l-12.33-17.07-.3,17.51,12.62-.44Z" style="fill: #1f4d31;"/>
  <path d="M274.58,387.74c5.74-3.26,10.78-5.49,14.86-9.63l-9.21-6.45c-.39-.28-1.04-2.03-1.16-2.49-.67-2.62,6.8-2.59,14.75,3.84,3.26-4.06,5.95-7.87,7.85-13.76l-17.9,5.91c-1.08.36-4.03-.86-4.36-1.89s1.07-3.05,2.15-3.46l8.24-3.17c.65-1.3.85-4.84.87-7.18l-14.2,3.69c-4.32-9.66-1.38-19.45-5.78-28.65l13.98-9.41c.77-.51,3.28-.17,3.66.54s.3,3.36-.43,3.87l-9.8,6.84,1.52,6.11c3.03-1.07,6.19-1.79,8.59-1.67.42.62.98,3.75.27,4.13l-3.71,2.02c-.97.53-3.92,1.13-4.27,2.17-.41,1.22-.14,3.43.12,6.59l10.53-2.82.54-27.03c.02-1.11,1.5-3.3,2.49-3.32s2.97,2.2,3,3.41l.68,25.5,9.28-2.28c1.16-.29,2.82-3.31,2.67-4.15l-8.85.78c-.79.07-1.8-2.82-1.37-3.49s1.87-1.9,2.76-2.04l8.62-1.37.17-3.25c.11-2.16-12.61.92-10.18-4.04,2.17-4.42,13.87-4.48,15.73.86,3.2,9.2-1.56,20.57-8.24,26.11-3.94-4.75-11.08-.91-11.16.21l-.35,4.91,6.82-.93c1.05-.14,3.38.72,4.15,1.45,4.05,3.79-3.19,14.79-8.23,22.54,8.29,6.46,20.69,9.04,24.19,12.59.57.58-1,3.07-1.94,3.01-9.27-.57-19.08-5.38-27.04-10.65-13.31,12.2-23.25,7.7-20.28,6.01Z" style="fill: #653b0f;"/>
  <path d="M220.82,363.37c-12.43,9.5-39.4,21.45-48.18,14.06-5.91-4.97-2.24-18.67.92-28.85.34-1.09,2.91-2.65,4-2.33s1.7,3.15,1.49,4.37l-3.03,17.93c-.27,1.59,3.03,4.78,4.72,4.38l12.88-3.03-.02-44.93c1.26-.73,3.68-1.6,4.18-.79l2.26,3.66v39.32c8.11-2.6,13.29-6.57,18.8-11.24l-2.58-11.01c-.27-1.17,1.04-3.75,1.99-4.15,1.13-.48,4.07,1,4.42,2.2l9.86,33.46c.42,1.41-.71,4.39-1.77,5.15-1.27.91-4.65-.93-5.15-2.58l-4.77-15.63Z" style="fill: #653b0f;"/>
  <path d="M127.97,383.78l19.6-1.13c1.5-.09,4.3,2.35,4.11,3.63s-2.82,2.89-4.26,2.98l-23.6,1.55-24.81,3.07c-1.28.16-3.58-1.67-3.55-2.7s1.58-3.12,2.64-3.3l13.7-2.35c-2.88-4-3.55-7.94-2.58-12.51-5.25-9.97-5.08-23.7-1.78-21.55l3.22,2.1c9.66-5.4,23.96-7.26,24.12-1.06.03,1.35-.82,4.25-1.62,5.33l-2.03,2.71c-.51.69,1.1,2.12,2.58,4.06l-21.37,7.29c2.29,4.01,5.02,7.65,4.06,12.54,1.37.74,4.39-.51,5.48-2.58l5.97-11.32c.6-1.13,2.16-2.82,3.29-2.77,4.18.17,2.99,8.17-3.17,15.99ZM113.04,366.11c6.81-3.26,10.71-5.94,14.71-11.51l-15.99,2.88,1.29,8.63Z" style="fill: #653b0f;"/>
  <path d="M447.43,359.62l-17.61-7.67-.93,34.6c-.03,1.2-2.12,3.54-3.14,3.98-1.19.51-3.39-2.16-3.39-3.84l-.02-58.76-20.64,3.07c-1.32.2-3.98-1.18-4.68-2.04s.64-3.76,1.78-3.95l18.92-3.15,34.9-6.25c1.38-.25,4.15,1.46,4.32,2.69s-1.84,3.47-3.21,3.71l-24.56,4.4.73,18.99c25.01,4.69,24.27,17.14,17.54,14.21Z" style="fill: #653b0f;"/>
  <path d="M259.15,386.38c-6.94-1.11-13.28-12.59-10.61-13.45.56-.18,2.17.04,2.66.4l5.15,3.84.13-12.62-10.14,9.24-2.92-2.74c-.76-.72.2-4.16,1.08-4.92l11.9-10.11-.69-17.33-9.21.8c-1.04.09-3.2-2.37-2.94-3.3s1.83-2.34,2.85-2.58l9.07-2.09.35-10.4c.04-1.14,1.72-3.13,2.63-3.48,1.09-.42,3.3,1.72,3.42,3l.74,8.27c2.46-2.19,7.45-3.28,7.88.03.41,3.14-4.13,5.48-7.73,6.37l-.16,15.47,6.5-3.67c1.39,1.28.46,4.53-.91,6.01l-5.36,5.81.08,21.7c0,1.77-2,6.04-3.79,5.76Z" style="fill: #653b0f;"/>
  <path d="M88.75,336.16c-.8-.55-1.17-3.6-.44-4.18s3.05-1.15,3.97-.63l8.27,4.75,6.1-13.36-11.64,2.22c-.99.19-3.16-.93-3.62-1.68-.57-.94.94-3.77,2.13-4.05l15.25-3.68c.86-.21,3.62.19,4.08.91.58.91,1.02,2.54,1.53,4.46-5.27,14.49-11.89,27.84-21.68,39.57-4.73,5.4-12.33,12.83-16.03,11.82-.7-.19-1.9-1.52-1.88-2.25.02-.91,1.36-2.39,2.35-3.12,8.75-6.42,15.19-15.35,20.23-24.93l-8.63-5.86Z" style="fill: #653b0f;"/>
  <path d="M139.71,333.19c7.65,8.17,21.37,11.76,22.41,16.22.84,3.61-9.25,1.14-17.77-4.1-9.7-6.81-17.99-14.21-26.35-22.72l.37-3.69c.1-.97,2.96-1.04,3.74-.46l4.37,3.25,6.02-9.3c.62-.96,2.78-1.94,3.85-1.83s2.39,3.5,1.77,4.4l-7.14,10.44c.66.96,2.97,2.84,4.5,3.53l7.12-10.34c.62-.9,2.68-1.77,3.66-1.72,3.86.19,1.27,8.72-6.55,16.32Z" style="fill: #653b0f;"/>
  <path d="M386.6,350.63l-50.96,7.71c-1.65-.44-3.97-1.37-4.82-2.26-.96-1.01,1.19-4.18,2.87-4.44l40.81-6.15,11.81-1.09c1.23-.11,4,2.08,3.5,2.92s-1.68,1.97-3.21,3.3Z" style="fill: #653b0f;"/>
  <path d="M135.04,429.6l-.03-13.16c0-1.31-2.47-3.1-3.68-3-1.67.13-3.84,2.22-3.83,3.89l.04,11.16c0,1.34-4.24,1.48-4.24.31l-.02-17.5c0-1.02,3.72-.04,4.03,1.02,3.5-2.76,8.14-2.88,11.51.44,2.24-1.49,5.3-2.97,7.18-2.72,2.98.39,4.92,3.55,4.91,6.46l-.04,13.2-3.95-.14-.23-13.66c-.02-1.36-3.18-2.68-4.3-2.38-1.31.35-3.19,2.52-3.17,4.2l.12,10.83c0,.75-2.93,1.33-4.3,1.07Z" style="fill: #653b0f;"/>
  <path d="M401.71,429.29l-.57-13.96c-.05-1.27-3.87-2.18-4.92-1.61-1.23.67-2.82,3.11-2.8,4.55l.11,11.39h-4.15s.13-27.39.13-27.39c.46-.49,3.72-.3,3.77.6l.54,9.25c3.06-2.4,9.89-3.55,11.04,1.16,1.24,5.11.71,10.68.71,16.38l-3.85-.36Z" style="fill: #653b0f;"/>
  <path d="M351.39,429.8c-6.45-2.66-12.06,3.81-15.29-3.09-.86-1.82.07-5.56,2.7-6.99,2.21-1.21,4.82-1.67,8.23-2.37l-.23-2.64c-.25-2.84-7.01.69-9.82-.72,2.27-5.46,11.72-5.32,13.63-.42s.99,11.69.79,16.24ZM346.73,420.72c-3.71-.77-7.09,1.37-6.84,4.04.19,2.08,4.01,2.5,5.93,1.59,1.67-.79,2.59-5.28.91-5.62Z" style="fill: #653b0f;"/>
  <path d="M173.7,420.14c.02,6.1-4.21,10.11-9.38,10.13-5.07.02-8.95-4.22-9.11-9.72s3.33-9.94,8.12-10.39c5.75-.53,10.35,3.47,10.37,9.97ZM169.53,420.13c-.08-2.62-1.33-5.42-2.79-6.12-1.36-.65-4.78-.53-5.61.62s-1.45,4.23-1.48,5.87c-.07,3.81,2.07,6.65,5.64,6.22,2.02-.24,4.34-3.32,4.24-6.58Z" style="fill: #653b0f;"/>
  <path d="M242.91,429.59c-4.15,1.42-7.16.28-8.33-3.52-.7-2.27,1.12-6.56,4.24-7.24l7.56-1.64c-1.48-6.55-6.46-2.01-10.76-3.03-4.02-.95,10.15-7.94,13.18-1.52,2.17,4.59,1.42,11.81,1.34,17.02-2.94-.36-5.57-.64-7.25-.07ZM246.34,420.86c-2.67-1.26-7.51.02-7.68,4.1-.07,1.76,4.62,2.47,6.01,1.29,1.05-.89,1.72-3.5,1.67-5.39Z" style="fill: #653b0f;"/>
  <path d="M327.69,426.6l3.07-.6c.53-.1,1.41,1.86.97,2.18-4.19,3-10.14,2.57-13.2-.7-1.96-2.1-2.97-6.52-2.33-10.01.96-5.22,5.59-7.83,9.77-7.39,5.5.57,8.11,6.01,6.3,11.23l-11.84-.29c-.02,1.18.71,3.85,1.65,4.72s4.14,1.14,5.6.86ZM329.3,418.27c-.17-5.31-3.69-5.13-5.88-4.64-1.49.33-2.68,2-3.7,4.56l9.58.08Z" style="fill: #653b0f;"/>
  <path d="M278.08,426.7l-.84-11.99c-.14-1.96-6.91-.81-6.97,1.14l-.43,13.86-3.98-.14.07-19.05,4.27,1.36,5.99-1.79c1.55-.46,5.53,1.94,5.57,3.69l.29,15.62h-3.59c-.63-.01-.34-2.03-.38-2.71Z" style="fill: #653b0f;"/>
  <path d="M190.21,411.58c.01-1.14,3.9-1.08,3.91.15l.18,18.18-4.39-1.6c-1.88.86-5.08,1.93-7.59,1.81-2.12-.11-4.33-3.98-4.33-6.46l-.04-12.95,4.16-.08.1,12.9c.01,1.42,2.68,3.38,4.01,3.15s3.85-2.45,3.86-3.91l.12-11.19Z" style="fill: #653b0f;"/>
  <path d="M212.53,427.07l-.54-11.7c-.06-1.33-4.14-2.18-5.28-1.45s-2.59,3.02-2.57,4.6l.14,9.88c0,.45-1.49,1.57-1.94,1.64-.67.11-2.3-1.2-2.3-1.96v-17.34s4.51,1.13,4.51,1.13l5.69-1.83c1.61-.52,5.7,1.79,5.75,3.54l.4,15.8-3.18.46c-.48.07-.62-1.52-.67-2.77Z" style="fill: #653b0f;"/>
  <path d="M109.33,347.41c-1.08.26-3.57-2.28-3.27-3.12s1.6-2.89,2.7-3.15l18.68-4.35c1.18-.27,4.05,1.5,3.99,2.53s-1.67,3.25-2.7,3.49l-19.41,4.6Z" style="fill: #653b0f;"/>
  <path d="M311.28,428.63c-3.48,2.69-9.53,1.35-12.02-.24-.52-.33-.47-2.61.14-2.65,3.81-.22,7.99,2.74,9.28-.06,1.8-3.9-4.99-3.45-8.5-7.31-.93-1.03-.69-4.95.28-5.99,2.91-3.11,10.26-3.78,11.87,1.22l-8.73.24c-1.41,4.93,5.76,3.55,8.78,7.91,1,1.45.47,5.67-1.1,6.89Z" style="fill: #653b0f;"/>
  <path d="M226.84,425.61l6.29,2.56c-2.04,2.14-5.5,2.45-7.59,1.56-1.6-.68-2.65-3.68-2.7-5.94l-.2-9.41c-1.48-1.28-2.85-2.62-2.52-2.59,1.55-1.67,2.81-3.27,3.25-4.32l.98-2.35c.28-.67,2.56.7,2.53,1.44-.05,1.27-.21,3.66.62,3.78l3.95.6c.63.1.36,2.67-.26,2.66l-4.25-.03-.1,12.04Z" style="fill: #653b0f;"/>
  <path d="M373.99,418.82c-.25,1.75.64,5.21,1.73,6.36,2.57,2.71,5.79.19,9.56,1.25,1.81.51-3.67,5.75-10.01,3.2-2.66-1.07-5.13-4.59-5.6-8.08-.43-3.2.83-7.04,2.64-8.8,4.75-4.62,12.81-1.91,12.21-.58l-.88,1.94c-.21.47-1.49.01-2.22-.2-3.5-1.05-6.74.11-7.43,4.9Z" style="fill: #653b0f;"/>
  <path d="M361.4,417.8l-.44,11.78c-1.23.37-4.1-.33-4.07-1.47l.39-17.77,3.91,1.85c.58.27,1.99-1.2,2.61-1.32l3.46-.7c.74-.15.65,3.08-.08,3.17-1.85.13-5.68,1.67-5.78,4.45Z" style="fill: #653b0f;"/>
  <rect x="255.73" y="410.38" width="4.15" height="19.52" style="fill: #653b0f;"/>
  <path d="M296.02,418.43c-.49,3.4-3.43,2.99-6.21,2.95l-2.56-.03c-.64,0-.63-2.09-.39-3.1l9.17.18Z" style="fill: #653b0f;"/>
  <path d="M359.35,248.52c-9.43-7.17-12.98-20.27-16.08-17.61-2.76,2.37-5.55,10.97-14.52,18.41.43.85,2.36,2.75,3.48,2.69s3.23-1.41,4.01-2.22l4.6-4.73c-1.12,8.25-7,11.33-11.75,16.87-1.04,1.21,2.67,4.53,3.89,3.5l8.11-6.87c-1.92,8.27-8,11.75-13.7,17.89l4.31,3.84,9.43-8.74-.04,18.21-52.34.03-67.3-50.07c22.4-17.19,44.18-34.08,65.28-52.51l17.23-17.53,10.91,14.54-15.13,64.96c-.41,1.75,1.07,4.15,2.36,4.27,2.73.25,3.63-1.32,4.22-3.85l13.7-58.9,19.41,24.64,57.81,74.35-49.94.13.11-18.36,8.13,7.61c.9.84,3.52.22,4.24-.64,3.57-4.28-10.8-9.84-12.4-19.82l8.54,7.17,4.26-2.78c-5.08-5.73-9.49-9.4-12.95-16.77,2.69.53,4.33,2.48,6.61,4.73l3.14.75c.87.21,2.52-2.14,2.36-3.19Z" style="fill: #fff;"/>
  <path d="M174.22,249.99l6.64,6.17,2.9.26c.91.08,2.63-2.78,1.99-3.48-8.32-6.87-11.95-16.73-14.58-17.97-2.09-.99-6.79,11.71-15.05,18.28-.56.9,1.42,3.54,2.49,3.44s2.96-1.07,3.89-1.86l5.23-4.75c-.41,9.28-17.59,18.52-10.17,19.96,1.01.2,3.34-.47,4.12-1.17l5.98-5.43c-2.42,12.93-20.23,17.06-8.93,21.21l9.02-8.02.04,13.17-47.72-.02.09-30.67,55.38-76.52c-.84,7.87-1.61,15.37-4.23,22.11-2.91,7.53-7.85,14.1-11.65,21.33.76,1.66,4.07,3.24,5.91,2.76l10.66-18.52,12.4,2.63,22.7,27.7-18.84,49.07-18.49.15.27-13.62,6.73,6.45c.72.69,3.27,1.86,3.97,1.22l2.79-2.62-9.04-9.36c-2.22-2.3-3.79-5.07-4.54-8.16l5.4,4.57c.9.76,3.2,2.01,4.27,1.74s2.68-2.35,2.38-3.15c-4.19-5.22-11.32-8.82-12.01-16.89Z" style="fill: #fff;"/>
  <polygon points="277.45 289.55 199.45 289.8 216.89 244.43 277.45 289.55" style="fill: #fff;"/>
  <path d="M402.96,286.46c-2.25-3.4-5.84-6.98-6.93-10.84l-12.61-44.89-30.33-14.13-5.49-44.08,18.36,25.29,45.39,65.42.19,25.85c-2.91,1.99-6.6.37-8.58-2.62Z" style="fill: #fff;"/>
  <polygon points="214.03 233.36 194.12 209.62 251.05 135.08 214.03 233.36" style="fill: #fff;"/>
  <polygon points="281.79 183.23 252.08 152.27 264.92 118.61 299.88 164.43 281.79 183.23" style="fill: #fff;"/>
  <path d="M276.81,187.53c-18.41,14.85-34.99,28.92-54.52,42.91l27.14-71.13,12.69,12.39,14.69,15.83Z" style="fill: #fff;"/>
  <polygon points="345.62 212.29 322.74 183.51 340.04 165.39 345.62 212.29" style="fill: #fff;"/>
  <polygon points="188.78 205.72 178.45 203.99 184.67 173.48 200.4 190.03 188.78 205.72" style="fill: #fff;"/>
  <polygon points="378.04 235.14 385.55 263.86 356.14 225.68 378.04 235.14" style="fill: #fff;"/>
  <polygon points="114.07 289.63 97.81 289.73 113.61 267.96 114.07 289.63" style="fill: #fff;"/>
  <polygon points="430.16 289.45 417.54 289.89 417.84 272.38 430.16 289.45" style="fill: #fff;"/>
  <path d="M113.04,366.11l-1.29-8.63,15.99-2.88c-3.99,5.57-7.9,8.25-14.71,11.51Z" style="fill: #fff;"/>
  <path d="M346.73,420.72c1.67.35.75,4.83-.91,5.62-1.92.91-5.74.49-5.93-1.59-.25-2.67,3.13-4.81,6.84-4.04Z" style="fill: #fff;"/>
  <path d="M169.53,420.13c.11,3.27-2.21,6.34-4.24,6.58-3.57.43-5.71-2.41-5.64-6.22.03-1.63.65-4.72,1.48-5.87s4.24-1.27,5.61-.62c1.46.7,2.71,3.5,2.79,6.12Z" style="fill: #fff;"/>
  <path d="M244.67,420.86c.04,1.89-.49,4.5-1.31,5.39-1.09,1.18-4.76.47-4.7-1.29.13-4.08,3.92-5.36,6.01-4.1Z" style="fill: #fff;"/>
  <path d="M329.3,418.27l-9.58-.08c1.02-2.56,2.22-4.23,3.7-4.56,2.19-.49,5.71-.67,5.88,4.64Z" style="fill: #fff;"/>
</svg>